<svg id="Layer_1" data-name="Layer 1" xmlns="http://www.w3.org/2000/svg" viewBox="0 0 708.94 1087.85"><defs><style>.cls-1{fill:#2f2e41;}.cls-2{fill:#f2f2f2;}.cls-3{fill:#3f3d56;}.cls-4{fill:#fff;}.cls-5{fill:#ff0095;}.cls-6,.cls-7{fill:none;stroke:#3f3d56;}.cls-6{stroke-miterlimit:10;stroke-width:2px;}.cls-7{stroke-miterlimit:10;stroke-width:2px;}.cls-8{fill:#ff6584;}</style></defs><title>components3</title><ellipse id="svg_2" data-name="svg 2" class="cls-1" cx="206.82" cy="665.07" rx="39.5" ry="12.4" transform="translate(-488.25 620.81) rotate(-69.08)"/><path id="svg_3" data-name="svg 3" class="cls-2" d="M704.36,776.11C720,892.7,698.7,1009.42,590.19,1054.86s-233.3-5.66-278.75-114.16,61.78-173.43,114.17-278.76C532,448.05,655.71,414.05,704.36,776.11Z"/><ellipse id="svg_4" data-name="svg 4" class="cls-3" cx="535" cy="1062.72" rx="170" ry="23.13"/><rect id="svg_5" data-name="svg 5" class="cls-1" x="426.21" y="997.7" width="43" height="24" transform="translate(-252.84 155.78) rotate(-15.45)"/><ellipse id="svg_6" data-name="svg 6" class="cls-1" cx="421.32" cy="1011.81" rx="7.5" ry="20" transform="translate(-254.35 148.83) rotate(-15.45)"/><ellipse id="svg_7" data-name="svg 7" class="cls-1" cx="542.32" cy="922.64" rx="39.5" ry="12.4" transform="translate(-444.8 1336.12) rotate(-82.28)"/><circle id="svg_8" data-name="svg 8" class="cls-1" cx="534.58" cy="996.59" r="79"/><rect id="svg_9" data-name="svg 9" class="cls-1" x="426.21" y="983.7" width="43" height="24" transform="translate(-249.11 155.28) rotate(-15.45)"/><ellipse id="svg_10" data-name="svg 10" class="cls-1" cx="421.32" cy="997.81" rx="7.5" ry="20" transform="translate(-250.62 148.32) rotate(-15.45)"/><circle id="svg_11" data-name="svg 11" class="cls-4" cx="555.33" cy="951.33" r="27"/><circle id="svg_12" data-name="svg 12" class="cls-3" cx="563.96" cy="939.4" r="9"/><path id="svg_13" data-name="svg 13" class="cls-5" d="M625.81,1050.87c29.24-1.46,51.63-28.8,50-61.07S649.2,932.56,620,934s-33.83,24.41-32.21,56.68S596.58,1052.34,625.81,1050.87Z"/><path id="svg_14" data-name="svg 14" class="cls-4" d="M502.3,963.16a18,18,0,0,1-2.91-35.88c9.91-.8,12.61,7.06,13.42,17s-.6,18.11-10.51,18.91Z"/><polyline id="svg_15" data-name="svg 15" class="cls-6" points="112.05 868.16 243.29 445.57 295.55 389.97 378.83 301.38 272.23 193.44 332.22 0.3"/><circle id="svg_16" data-name="svg 16" class="cls-5" cx="222.81" cy="630.31" r="13.69"/><circle id="svg_17" data-name="svg 17" class="cls-5" cx="220.54" cy="527.31" r="13.69"/><circle id="svg_18" data-name="svg 18" class="cls-5" cx="285.38" cy="400.77" r="13.69"/><circle id="svg_19" data-name="svg 19" class="cls-5" cx="304.38" cy="81.17" r="13.69"/><circle id="svg_20" data-name="svg 20" class="cls-5" cx="356.44" cy="275.39" r="13.69"/><circle id="svg_21" data-name="svg 21" class="cls-7" cx="299.58" cy="562.73" r="14.76"/><ellipse id="svg_22" data-name="svg 22" class="cls-3" cx="170" cy="1064.72" rx="170" ry="23.13"/><circle id="svg_23" data-name="svg 23" class="cls-1" cx="160.8" cy="951.72" r="79"/><rect id="svg_24" data-name="svg 24" class="cls-1" x="124.8" y="1013.72" width="24" height="43"/><rect id="svg_25" data-name="svg 25" class="cls-1" x="172.8" y="1013.72" width="24" height="43"/><ellipse id="svg_26" data-name="svg 26" class="cls-1" cx="144.8" cy="1057.22" rx="20" ry="7.5"/><ellipse id="svg_27" data-name="svg 27" class="cls-1" cx="192.8" cy="1056.22" rx="20" ry="7.5"/><circle id="svg_28" data-name="svg 28" class="cls-4" cx="162.8" cy="931.72" r="27"/><circle id="svg_29" data-name="svg 29" class="cls-3" cx="162.8" cy="931.72" r="9"/><path id="svg_30" data-name="svg 30" class="cls-5" d="M84.17,878.26c-6.38-28.57,14-57.44,45.55-64.48s62.26,10.41,68.64,39-14.52,39.1-46.05,46.14-61.76,7.92-68.14-20.64Z"/><circle id="svg_31" data-name="svg 31" class="cls-1" cx="133.8" cy="724.72" r="79"/><rect id="svg_32" data-name="svg 32" class="cls-1" x="97.8" y="786.72" width="24" height="43"/><rect id="svg_33" data-name="svg 33" class="cls-1" x="145.8" y="786.72" width="24" height="43"/><ellipse id="svg_34" data-name="svg 34" class="cls-1" cx="117.8" cy="830.22" rx="20" ry="7.5"/><ellipse id="svg_35" data-name="svg 35" class="cls-1" cx="165.8" cy="829.22" rx="20" ry="7.5"/><circle id="svg_36" data-name="svg 36" class="cls-4" cx="135.8" cy="704.72" r="27"/><circle id="svg_37" data-name="svg 37" class="cls-3" cx="135.8" cy="704.72" r="9"/><path id="svg_38" data-name="svg 38" class="cls-5" d="M57.17,651.26c-6.38-28.57,14-57.44,45.55-64.48s62.26,10.41,68.64,39-14.52,39.1-46.05,46.14S63.55,679.82,57.17,651.26Z"/><ellipse id="svg_39" data-name="svg 39" class="cls-1" cx="44.82" cy="688.07" rx="12.4" ry="39.5" transform="translate(-596.07 433.71) rotate(-64.63)"/><path id="svg_40" data-name="svg 40" class="cls-4" d="M95,753.22c0,7.74,19.91,23,42,23s42.8-21.76,42.8-29.5-20.71,1.5-42.8,1.5S95,745.49,95,753.22Z"/><rect id="svg_41" data-name="svg 41" class="cls-5" x="454.47" y="833" width="126.13" height="64.16"/><rect id="svg_42" data-name="svg 42" class="cls-7" x="444.6" y="843.42" width="126.13" height="64.16"/><rect id="svg_43" data-name="svg 43" class="cls-8" x="152.6" y="128.29" width="36" height="36"/><rect id="svg_44" data-name="svg 44" class="cls-7" x="143.6" y="116.29" width="36" height="36"/><circle id="svg_45" data-name="svg 45" class="cls-1" cx="539.05" cy="318.76" r="79"/><rect id="svg_46" data-name="svg 46" class="cls-1" x="526.54" y="389.14" width="24" height="43" transform="translate(-64.53 102.5) rotate(-10.26)"/><ellipse id="svg_48" data-name="svg 48" class="cls-1" cx="540.27" cy="436.18" rx="20" ry="7.5" transform="translate(-153.91 452.49) rotate(-40.26)"/><ellipse id="svg_49" data-name="svg 49" class="cls-1" cx="570.88" cy="426.72" rx="20" ry="7.5" transform="translate(-140.54 470.03) rotate(-40.26)"/><circle id="svg_50" data-name="svg 50" class="cls-4" cx="533.52" cy="299.43" r="27"/><circle id="svg_51" data-name="svg 51" class="cls-3" cx="522.42" cy="289.75" r="9"/><path id="svg_52" data-name="svg 52" class="cls-5" d="M601.37,232.81c1.19-29.24-24-54-56.3-55.33s-59.41,21.34-60.6,50.58S505.72,264,538,265.27s62.18-3.21,63.37-32.46Z"/><ellipse id="svg_53" data-name="svg 53" class="cls-1" cx="466.11" cy="304.36" rx="12.4" ry="39.5" transform="translate(65.3 690.69) rotate(-77.09)"/><ellipse id="svg_54" data-name="svg 54" class="cls-1" cx="621.18" cy="330.15" rx="12.4" ry="39.5" transform="translate(160.59 861.87) rotate(-77.09)"/><path id="svg_55" data-name="svg 55" class="cls-4" d="M560.75,349.89a18,18,0,1,1-35.42,6.41c-1.78-9.78,5.79-13.24,15.57-15s18.08-1.18,19.85,8.6Z"/><line id="svg_56" data-name="svg 56" class="cls-7" x1="408.6" y1="155.29" x2="432.6" y2="294.29"/><circle id="svg_57" data-name="svg 57" class="cls-8" cx="408.6" cy="96.29" r="68"/><ellipse id="svg_58" data-name="svg 58" class="cls-1" cx="512.67" cy="941.41" rx="39.5" ry="12.4" transform="translate(-489.07 1322.99) rotate(-82.28)"/><circle id="svg_59" data-name="svg 59" class="cls-5" cx="68.81" cy="1041.31" r="13.69"/><rect id="svg_60" data-name="svg 60" class="cls-8" x="256.6" y="1025.29" width="36" height="36"/><circle id="svg_61" data-name="svg 61" class="cls-5" cx="256.81" cy="1049.31" r="13.69"/><circle id="svg_63" data-name="svg 63" class="cls-8" cx="346.72" cy="947.54" r="6.54"/><line id="svg_64" data-name="svg 64" class="cls-7" x1="378.74" y1="1056.01" x2="378.74" y2="981.6"/><circle id="svg_65" data-name="svg 65" class="cls-3" cx="378.74" cy="981.6" r="10.52"/><path id="svg_66" data-name="svg 66" class="cls-3" d="M378.74,1027.46s-1.5-32.33-32.32-28.57"/><rect id="svg_67" data-name="svg 67" class="cls-1" x="558.54" y="378.14" width="24" height="43" transform="translate(-62.06 108.02) rotate(-10.26)"/></svg>