<svg width="742.91385" height="1381.5636" xmlns="http://www.w3.org/2000/svg">
 <title>good team</title>

 <g>
  <title>background</title>
  <rect fill="none" id="canvas_background" height="1383.5636" width="744.91385" y="-1" x="-1"/>
 </g>
 <g>
  <title>Layer 1</title>
  <ellipse id="svg_2" fill="#2f2e41" transform="rotate(-69.08216857910156 -277.29733276367176,771.9036865234376) " ry="12.40027" rx="39.5" cy="1215.401957" cx="-28.430033"/>
  <path id="svg_3" fill="#f2f2f2" d="m728.334701,840.295719c15.6657,116.58889 -5.66624,233.30465 -114.16871,278.75349s-233.30466,-5.66624 -278.75349,-114.16871s61.78473,-173.424 114.16871,-278.75349c106.37626,-213.89277 230.10403,-247.89553 278.75349,114.16871z"/>
  <ellipse id="svg_4" fill="#3f3d56" ry="23.12721" rx="170" cy="1095.4364" cx="554"/>
  <rect id="svg_5" fill="#2f2e41" transform="rotate(-105.4522705078125 -48.405609130859276,2088.2133789062505) " height="43" width="24" y="2841.845911" x="810.346171"/>
  <ellipse id="svg_6" fill="#2f2e41" transform="rotate(-15.452269554138184 -580.6062622070317,520.3442382812499) " ry="20" rx="7.5" cy="1297.584708" cx="263.753168"/>
  <ellipse id="svg_7" fill="#2f2e41" transform="rotate(-82.28111267089844 -250.1766357421877,1819.5482177734373) " ry="12.40027" rx="39.5" cy="2507.617138" cx="715.184662"/>
  <circle id="svg_8" fill="#2f2e41" r="79" cy="1029.29931" cx="553.58486"/>
  <rect id="svg_9" fill="#2f2e41" transform="rotate(-105.4522705078125 -34.911682128906236,2070.4833984375) " height="43" width="24" y="2810.115808" x="823.840098"/>
  <ellipse id="svg_10" fill="#2f2e41" transform="rotate(-15.452269554138184 -576.8761596679694,519.838195800781) " ry="20" rx="7.5" cy="1283.078651" cx="267.48327"/>
  <circle id="svg_11" fill="#fff" r="27" cy="984.0429" cx="574.32904"/>
  <circle id="svg_12" fill="#3f3d56" r="9" cy="972.11583" cx="582.96335"/>
  <path id="svg_13" fill="#ff0095" d="m644.814581,1083.587509c29.23451,-1.46311 51.62459,-28.80779 50.00965,-61.07607s-26.62336,-57.24079 -55.85786,-55.77768s-33.822,24.41244 -32.20709,56.68072s8.8208,61.63614 38.0553,60.17303z"/>
  <path id="svg_14" fill="#fff" d="m521.297771,995.873869a18,18 0 0 1 -2.90424,-35.88266c9.90873,-0.802 12.611,7.06452 13.413,16.97325s-0.60004,18.10742 -10.50876,18.90941z"/>
  <polyline transform="rotate(-72.7469711303711 282.5189819335938,479.79302978515625) " id="svg_15" stroke-width="2" stroke-miterlimit="10" stroke="#3f3d56" fill="none" points="-164.53599548339844,460.0249938964844 277.9570007324219,460.0249938964844 346.55999755859375,493.447021484375 455.86602783203125,546.6990356445312 527.333984375,412.8869934082031 729.573974609375,412.8869934082031 "/>
  <circle id="svg_16" fill="#ff0095" r="13.68536" cy="663.02535" cx="241.81141"/>
  <circle id="svg_17" fill="#ff0095" r="13.68536" cy="560.02535" cx="239.54143"/>
  <circle id="svg_18" fill="#ff0095" r="13.68536" cy="433.47845" cx="304.3836"/>
  <circle id="svg_19" fill="#ff0095" r="13.68536" cy="113.88689" cx="323.37911"/>
  <circle id="svg_20" fill="#ff0095" r="13.68536" cy="308.10773" cx="375.44314"/>
  <circle id="svg_21" stroke-width="2" stroke-miterlimit="10" stroke="#3f3d56" fill="none" r="14.75556" cy="595.44087" cx="318.57554"/>
  <ellipse id="svg_22" fill="#3f3d56" ry="23.12721" rx="170" cy="1097.4364" cx="189"/>
  <circle id="svg_23" fill="#2f2e41" r="79" cy="984.4364" cx="179.80455"/>
  <rect id="svg_24" fill="#2f2e41" height="43" width="24" y="1046.4364" x="143.80455"/>
  <rect id="svg_25" fill="#2f2e41" height="43" width="24" y="1046.4364" x="191.80455"/>
  <ellipse id="svg_26" fill="#2f2e41" ry="7.5" rx="20" cy="1089.9364" cx="163.80455"/>
  <ellipse id="svg_27" fill="#2f2e41" ry="7.5" rx="20" cy="1088.9364" cx="211.80455"/>
  <circle id="svg_28" fill="#fff" r="27" cy="964.4364" cx="181.80455"/>
  <circle id="svg_29" fill="#3f3d56" r="9" cy="964.4364" cx="181.80455"/>
  <path id="svg_30" fill="#ff0095" d="m103.171921,910.968669c-6.37889,-28.56758 14.01185,-57.43391 45.544,-64.47476s62.2651,10.41 68.644,38.97759s-14.51861,39.1038 -46.05075,46.14465s-61.7584,7.9201 -68.13725,-20.64748z"/>
  <circle id="svg_31" fill="#2f2e41" r="79" cy="757.4364" cx="152.80455"/>
  <rect id="svg_32" fill="#2f2e41" height="43" width="24" y="819.4364" x="116.80455"/>
  <rect id="svg_33" fill="#2f2e41" height="43" width="24" y="819.4364" x="164.80455"/>
  <ellipse id="svg_34" fill="#2f2e41" ry="7.5" rx="20" cy="862.9364" cx="136.80455"/>
  <ellipse id="svg_35" fill="#2f2e41" ry="7.5" rx="20" cy="861.9364" cx="184.80455"/>
  <circle id="svg_36" fill="#fff" r="27" cy="737.4364" cx="154.80455"/>
  <circle id="svg_37" fill="#3f3d56" r="9" cy="737.4364" cx="154.80455"/>
  <path id="svg_38" fill="#ff0095" d="m76.171921,683.968669c-6.37889,-28.56758 14.01185,-57.43391 45.544,-64.47476s62.2651,10.41 68.644,38.97759s-14.51861,39.1038 -46.05075,46.14465s-61.7584,7.9201 -68.13725,-20.64748z"/>
  <ellipse id="svg_39" fill="#2f2e41" transform="rotate(-64.62574005126953 -394.8951416015624,599.3588867187501) " ry="39.5" rx="12.40027" cy="1065.857157" cx="-308.027842"/>
  <path id="svg_40" fill="#fff" d="m114.000001,785.936389c0,7.732 19.90861,23 42,23s42.80455,-21.768 42.80455,-29.5s-20.71316,1.5 -42.80455,1.5s-42,-2.73198 -42,5z"/>
  <rect id="svg_41" fill="#ff0095" height="64.16129" width="126.12903" y="865.70968" x="473.47438"/>
  <rect id="svg_42" stroke-width="2" stroke-miterlimit="10" stroke="#3f3d56" fill="none" height="64.16129" width="126.12903" y="876.12903" x="463.60342"/>
  <rect id="svg_43" fill="#ff6584" height="36" width="36" y="139" x="33.60342"/>
  <rect id="svg_44" stroke-width="2" stroke-miterlimit="10" stroke="#3f3d56" fill="none" height="36" width="36" y="127" x="24.60342"/>
  <circle id="svg_45" fill="#2f2e41" r="79" cy="433.47009" cx="487.05209"/>
  <rect id="svg_46" fill="#2f2e41" transform="matrix(-0.98401,0.17813,-0.17813,-0.98401,1968.98075,387.87775) " height="43" width="24" y="107.2876" x="1471.216622"/>
  <rect id="svg_47" fill="#2f2e41" transform="rotate(169.7389373779297 2707.1479492187505,736.8834838867186) " height="43" width="24" y="715.383483" x="2695.147848"/>
  <ellipse id="svg_48" fill="#2f2e41" transform="rotate(-40.26105880737305 488.2650756835938,550.8953247070312) " ry="7.5" rx="20" cy="550.89533" cx="488.265061"/>
  <ellipse id="svg_49" fill="#2f2e41" transform="rotate(-40.26105880737305 518.8800048828124,541.4287109375001) " ry="7.5" rx="20" cy="541.4287" cx="518.87998"/>
  <circle id="svg_50" fill="#fff" r="27" cy="414.14623" cx="481.52141"/>
  <circle id="svg_51" fill="#3f3d56" r="9" cy="404.46817" cx="470.4245"/>
  <path id="svg_52" fill="#ff0095" d="m549.372061,347.526529c1.188,-29.247 -24.01866,-54.01935 -56.30069,-55.33066s-59.41488,21.335 -60.60291,50.582s21.2521,35.89214 53.53414,37.20345s62.18143,-3.20781 63.36946,-32.45479z"/>
  <ellipse id="svg_53" fill="#2f2e41" transform="rotate(-77.08989715576172 15.061065673828063,1225.4554443359375) " ry="39.5" rx="12.40027" cy="1434.251234" cx="890.210666"/>
  <ellipse id="svg_54" fill="#2f2e41" transform="rotate(-77.08989715576172 110.35144042968754,1396.6363525390625) " ry="39.5" rx="12.40027" cy="1631.220723" cx="1140.57506"/>
  <path id="svg_55" fill="#fff" d="m508.749481,464.602979a18,18 0 1 1 -35.42423,6.41281c-1.77085,-9.78213 5.79238,-13.24363 15.57451,-15.01448s18.07887,-1.18046 19.84972,8.60167z"/>
  <line id="svg_56" stroke-width="2" stroke-miterlimit="10" stroke="#3f3d56" fill="none" y2="413" x2="384.60342" y1="343" x1="293.60342"/>
  <circle id="svg_57" fill="#ff6584" r="68" cy="312" cx="250.60342"/>
  <ellipse id="svg_58" fill="#2f2e41" transform="rotate(-82.28111267089844 -294.4469604492189,1806.4152832031248) " ry="12.40027" rx="39.5" cy="2513.255493" cx="641.262597"/>
  <circle id="svg_59" fill="#ff0095" r="13.68536" cy="1074.02535" cx="87.81141"/>
  <rect id="svg_60" fill="#ff6584" height="36" width="36" y="1058" x="275.60342"/>
  <circle id="svg_61" fill="#ff0095" r="13.68536" cy="1082.02535" cx="275.81141"/>
  <circle id="svg_63" fill="#ff6584" r="6.53537" cy="980.25214" cx="365.72056"/>
  <line id="svg_64" stroke-width="2" stroke-miterlimit="10" stroke="#3f3d56" fill="#3f3d56" y2="1014.31328" x2="397.73934" y1="1088.72466" x1="397.73934"/>
  <circle id="svg_65" fill="#3f3d56" r="10.52282" cy="1014.31328" cx="397.73934"/>
  <path id="svg_66" fill="#3f3d56" d="m397.739331,1060.174549s-1.50326,-32.33193 -32.32009,-28.57378"/>
  <rect id="svg_67" fill="#2f2e41" transform="matrix(-0.98401,0.17813,-0.17813,-0.98401,1968.98075,387.87775) " height="43" width="24" y="112.411519" x="1437.769072"/>
 </g>
</svg>