<?xml version="1.0" encoding="UTF-8" standalone="no"?>
<!DOCTYPE svg PUBLIC "-//W3C//DTD SVG 1.1//EN" "http://www.w3.org/Graphics/SVG/1.1/DTD/svg11.dtd">
<svg version="1.1" xmlns="http://www.w3.org/2000/svg" xmlns:xlink="http://www.w3.org/1999/xlink" preserveAspectRatio="xMidYMid meet" viewBox="-1 -1 324 324" width="320" height="320"><defs><path d="M283.28 0.13L284.89 0.3L286.48 0.52L288.06 0.81L289.61 1.16L291.13 1.57L292.64 2.04L294.11 2.57L295.56 3.15L296.98 3.78L298.38 4.47L299.74 5.21L301.06 6L302.36 6.84L303.62 7.72L304.84 8.66L306.03 9.63L307.17 10.66L308.28 11.72L309.34 12.83L310.37 13.97L311.34 15.16L312.28 16.38L313.16 17.64L314 18.94L314.79 20.26L315.53 21.62L316.22 23.02L316.85 24.44L317.43 25.89L317.96 27.36L318.43 28.87L318.84 30.39L319.19 31.94L319.48 33.52L319.7 35.11L319.87 36.72L319.97 38.35L320 40L320 280L319.97 281.65L319.87 283.28L319.7 284.89L319.48 286.48L319.19 288.06L318.84 289.61L318.43 291.13L317.96 292.64L317.43 294.11L316.85 295.56L316.22 296.98L315.53 298.38L314.79 299.74L314 301.06L313.16 302.36L312.28 303.62L311.34 304.84L310.37 306.03L309.34 307.17L308.28 308.28L307.17 309.34L306.03 310.37L304.84 311.34L303.62 312.28L302.36 313.16L301.06 314L299.74 314.79L298.38 315.53L296.98 316.22L295.56 316.85L294.11 317.43L292.64 317.96L291.13 318.43L289.61 318.84L288.06 319.19L286.48 319.48L284.89 319.7L283.28 319.87L282.99 319.89L282.99 320L42.99 320L42.99 319.89L41.65 319.97L40 320L38.35 319.97L36.72 319.87L35.11 319.7L33.52 319.48L31.94 319.19L30.39 318.84L28.87 318.43L27.36 317.96L25.89 317.43L24.44 316.85L23.02 316.22L21.62 315.53L20.26 314.79L18.94 314L17.64 313.16L16.38 312.28L15.16 311.34L13.97 310.37L12.83 309.34L11.72 308.28L10.66 307.17L9.63 306.03L8.66 304.84L7.72 303.62L6.84 302.36L6 301.06L5.21 299.74L4.47 298.38L3.78 296.98L3.15 295.56L2.57 294.11L2.04 292.64L1.57 291.13L1.16 289.61L0.81 288.06L0.52 286.48L0.3 284.89L0.13 283.28L0.03 281.65L0 280L0.03 278.35L0.13 276.72L0.22 275.86L0 275.86L0 35.86L0.22 35.86L0.3 35.11L0.52 33.52L0.81 31.94L1.16 30.39L1.57 28.87L2.04 27.36L2.57 25.89L3.15 24.44L3.78 23.02L4.47 21.62L5.21 20.26L6 18.94L6.84 17.64L7.72 16.38L8.66 15.16L9.63 13.97L10.66 12.83L11.72 11.72L12.83 10.66L13.97 9.63L15.16 8.66L16.38 7.72L17.64 6.84L18.94 6L20.26 5.21L21.62 4.47L23.02 3.78L24.44 3.15L25.89 2.57L27.36 2.04L28.87 1.57L30.39 1.16L31.94 0.81L33.52 0.52L35.11 0.3L36.72 0.13L38.35 0.03L40 0L280 0L281.65 0.03L283.28 0.13Z" id="b1GeK9yLNq"></path><path d="M220.13 56.72L220.3 55.11L220.52 53.52L220.81 51.94L221.16 50.39L221.57 48.87L222.04 47.36L222.57 45.89L223.15 44.44L223.78 43.02L224.47 41.62L225.21 40.26L226 38.94L226.84 37.64L227.72 36.38L228.66 35.16L229.63 33.97L230.66 32.83L231.72 31.72L232.83 30.66L233.97 29.63L235.16 28.66L236.38 27.72L237.64 26.84L238.94 26L240.26 25.21L241.62 24.47L243.02 23.78L244.44 23.15L245.89 22.57L247.36 22.04L248.87 21.57L250.39 21.16L251.94 20.81L253.52 20.52L255.11 20.3L256.72 20.13L258.35 20.03L260 20L261.65 20.03L263.28 20.13L264.89 20.3L266.48 20.52L268.06 20.81L269.61 21.16L271.13 21.57L272.64 22.04L274.11 22.57L275.56 23.15L276.98 23.78L278.38 24.47L279.74 25.21L281.06 26L282.36 26.84L283.62 27.72L284.84 28.66L286.03 29.63L287.17 30.66L288.28 31.72L289.34 32.83L290.37 33.97L291.34 35.16L292.28 36.38L293.16 37.64L294 38.94L294.79 40.26L295.53 41.62L296.22 43.02L296.85 44.44L297.43 45.89L297.96 47.36L298.43 48.87L298.84 50.39L299.19 51.94L299.48 53.52L299.7 55.11L299.87 56.72L299.97 58.35L300 60L300 256.09L299.8 256.09L299.87 256.72L299.97 258.35L300 260L299.97 261.65L299.87 263.28L299.7 264.89L299.48 266.48L299.19 268.06L298.84 269.61L298.43 271.13L297.96 272.64L297.43 274.11L296.85 275.56L296.22 276.98L295.53 278.38L294.79 279.74L294 281.06L293.16 282.36L292.28 283.62L291.34 284.84L290.37 286.03L289.34 287.17L288.28 288.28L287.17 289.34L286.03 290.37L284.84 291.34L283.62 292.28L282.36 293.16L281.06 294L279.74 294.79L278.38 295.53L276.98 296.22L275.56 296.85L274.11 297.43L272.64 297.96L271.13 298.43L269.61 298.84L268.06 299.19L266.48 299.48L264.89 299.7L263.28 299.87L261.65 299.97L260 300L258.35 299.97L256.72 299.87L255.11 299.7L253.52 299.48L251.94 299.19L250.39 298.84L248.87 298.43L247.36 297.96L245.89 297.43L244.44 296.85L243.02 296.22L241.62 295.53L240.26 294.79L238.94 294L237.64 293.16L236.38 292.28L235.16 291.34L233.97 290.37L232.83 289.34L231.72 288.28L230.66 287.17L229.63 286.03L228.66 284.84L227.72 283.62L226.84 282.36L226 281.06L225.21 279.74L224.47 278.38L223.78 276.98L223.15 275.56L222.57 274.11L222.04 272.64L221.57 271.13L221.16 269.61L220.81 268.06L220.52 266.48L220.3 264.89L220.13 263.28L220.03 261.65L220 260L220.03 258.35L220.13 256.72L220.2 256.09L220 256.09L220 210L219.91 208.64L219.64 207.34L219.21 206.11L218.63 204.95L217.92 203.89L217.07 202.93L216.11 202.08L215.05 201.37L213.89 200.79L212.66 200.36L211.36 200.09L210 200L208.64 200.09L207.34 200.36L206.11 200.79L204.95 201.37L203.89 202.08L202.93 202.93L202.08 203.89L201.37 204.95L200.79 206.11L200.36 207.34L200.09 208.64L200 210L200 262.99L199.89 262.99L199.87 263.28L199.7 264.89L199.48 266.48L199.19 268.06L198.84 269.61L198.43 271.13L197.96 272.64L197.43 274.11L196.85 275.56L196.22 276.98L195.53 278.38L194.79 279.74L194 281.06L193.16 282.36L192.28 283.62L191.34 284.84L190.37 286.03L189.34 287.17L188.28 288.28L187.17 289.34L186.03 290.37L184.84 291.34L183.62 292.28L182.36 293.16L181.06 294L179.74 294.79L178.38 295.53L176.98 296.22L175.56 296.85L174.11 297.43L172.64 297.96L171.13 298.43L169.61 298.84L168.06 299.19L166.48 299.48L164.89 299.7L163.28 299.87L161.65 299.97L160 300L158.35 299.97L156.72 299.87L155.11 299.7L153.52 299.48L151.94 299.19L150.39 298.84L148.87 298.43L147.36 297.96L145.89 297.43L144.44 296.85L143.02 296.22L141.62 295.53L140.26 294.79L138.94 294L137.64 293.16L136.38 292.28L135.16 291.34L133.97 290.37L132.83 289.34L131.72 288.28L130.66 287.17L129.63 286.03L128.66 284.84L127.72 283.62L126.84 282.36L126 281.06L125.21 279.74L124.47 278.38L123.78 276.98L123.15 275.56L122.57 274.11L122.04 272.64L121.57 271.13L121.16 269.61L120.81 268.06L120.52 266.48L120.3 264.89L120.13 263.28L120.11 262.99L120 262.99L120 210L119.91 208.64L119.64 207.34L119.21 206.11L118.63 204.95L117.92 203.89L117.07 202.93L116.11 202.08L115.05 201.37L113.89 200.79L112.66 200.36L111.36 200.09L110 200L108.64 200.09L107.34 200.36L106.11 200.79L104.95 201.37L103.89 202.08L102.93 202.93L102.08 203.89L101.37 204.95L100.79 206.11L100.36 207.34L100.09 208.64L100 210L100 257.7L99.93 257.7L99.97 258.35L100 260L99.97 261.65L99.87 263.28L99.7 264.89L99.48 266.48L99.19 268.06L98.84 269.61L98.43 271.13L97.96 272.64L97.43 274.11L96.85 275.56L96.22 276.98L95.53 278.38L94.79 279.74L94 281.06L93.16 282.36L92.28 283.62L91.34 284.84L90.37 286.03L89.34 287.17L88.28 288.28L87.17 289.34L86.03 290.37L84.84 291.34L83.62 292.28L82.36 293.16L81.06 294L79.74 294.79L78.38 295.53L76.98 296.22L75.56 296.85L74.11 297.43L72.64 297.96L71.13 298.43L69.61 298.84L68.06 299.19L66.48 299.48L64.89 299.7L63.28 299.87L61.65 299.97L60 300L58.35 299.97L56.72 299.87L55.11 299.7L53.52 299.48L51.94 299.19L50.39 298.84L48.87 298.43L47.36 297.96L45.89 297.43L44.44 296.85L43.02 296.22L41.62 295.53L40.26 294.79L38.94 294L37.64 293.16L36.38 292.28L35.16 291.34L33.97 290.37L32.83 289.34L31.72 288.28L30.66 287.17L29.63 286.03L28.66 284.84L27.72 283.62L26.84 282.36L26 281.06L25.21 279.74L24.47 278.38L23.78 276.98L23.15 275.56L22.57 274.11L22.04 272.64L21.57 271.13L21.16 269.61L20.81 268.06L20.52 266.48L20.3 264.89L20.13 263.28L20.03 261.65L20 260L20.03 258.35L20.07 257.7L20 257.7L20 154.71L20.35 154.71L20.52 153.52L20.81 151.94L21.16 150.39L21.57 148.87L22.04 147.36L22.57 145.89L23.15 144.44L23.78 143.02L24.47 141.62L25.21 140.26L26 138.94L26.84 137.64L27.72 136.38L28.66 135.16L29.63 133.97L30.66 132.83L31.72 131.72L32.83 130.66L33.97 129.63L35.16 128.66L36.38 127.72L37.64 126.84L38.94 126L40.26 125.21L41.62 124.47L43.02 123.78L44.44 123.15L45.89 122.57L47.36 122.04L48.87 121.57L50.39 121.16L51.94 120.81L53.52 120.52L55.11 120.3L56.72 120.13L58.35 120.03L60 120L210 120L211.36 119.91L212.66 119.64L213.89 119.21L215.05 118.63L216.11 117.92L217.07 117.07L217.92 116.11L218.63 115.05L219.21 113.89L219.64 112.66L219.91 111.36L220 110L220 110L220 60L220.03 58.35L220.13 56.72Z" id="f1bOVDDuit"></path></defs><g><g><use xlink:href="#b1GeK9yLNq" opacity="1" fill="#ff0095" fill-opacity="1"></use></g><g><use xlink:href="#f1bOVDDuit" opacity="1" fill="#ffffff" fill-opacity="1"></use></g></g></svg>