<svg xmlns="http://www.w3.org/2000/svg" xmlns:xlink="http://www.w3.org/1999/xlink" viewBox="0 0 1274 232"><defs><style>.cls-1{fill:url(#linear-gradient);}.cls-2{fill:url(#linear-gradient-2);}</style><linearGradient id="linear-gradient" y1="141.84" x2="1274" y2="141.84" gradientUnits="userSpaceOnUse"><stop offset="0" stop-color="#b30092"/><stop offset="0" stop-color="#b30191"/><stop offset="0.37" stop-color="#d35354"/><stop offset="0.67" stop-color="#eb9026"/><stop offset="0.88" stop-color="#f9b50b"/><stop offset="1" stop-color="#ffc300"/></linearGradient><linearGradient id="linear-gradient-2" y1="116" x2="1274" y2="116" gradientUnits="userSpaceOnUse"><stop offset="0" stop-color="#00ffd7"/><stop offset="0.99" stop-color="#ff0095"/></linearGradient></defs><title>Asset 1</title><g id="Layer_2" data-name="Layer 2"><g id="Layer_1-2" data-name="Layer 1"><path class="cls-1" d="M0,232H1274V88L927.79,52.25a106.59,106.59,0,0,0-42.7,4.28L743.75,100.65a165.38,165.38,0,0,1-86.39,3.3l-117.43-27A107.34,107.34,0,0,0,481,80L199.89,176.4a123.22,123.22,0,0,1-63,4.52L0,155Z"/><path class="cls-2" d="M0,217.83l199.69-57.76a191.05,191.05,0,0,1,77.86-5.92l285,37.18A197.92,197.92,0,0,0,679,170.91L929.9,41.31A214,214,0,0,1,1053,18.89L1150,30.22a175.94,175.94,0,0,0,108.5-22.44L1272,0l2,232H0Z"/></g></g></svg>